<svg xmlns="http://www.w3.org/2000/svg" viewBox="179.3 58.8 217.1 217.1" class="avatar-img"><path fill="#dedede" d="M179.3 58.8h217.1v217.1H179.3z"/><path fill="#f0f0f0" d="M241 229.4c-11.4 1.2-42.1 8.3-50.7 21.3 0 0-5.3 5-7.8 14.8-.5 1.8-1.1 5.5-2 10.3H363c-.6-5.3-1.2-10.4-2.2-14.7-3.4-14.8-36.2-24.8-47.5-29.9-7.2-3.1-8.6-9.9-5.2-19.4l.2-.6c8.2 1.8 20.8.2 24.5-15.4 5.4-22.7 5.4-71.4-9.4-93.7-19.9-29.8-78.3-21.5-87.1 15.2-8.3 34.3 10.8 56.4 17.1 72.9 4.7 12.9 2.2 37.7-12.4 39.2z"/><path fill="#dedede" opacity=".5" d="M274.8 196c12.3 6.6 24.9 13 33.6 15.4-2.2 8.6-2 9.7-2 9.7s-16.5-11.5-31.6-25.1z"/></svg>